<?xml version="1.0" standalone="no"?>
<!DOCTYPE svg PUBLIC "-//W3C//DTD SVG 20010904//EN"
 "http://www.w3.org/TR/2001/REC-SVG-20010904/DTD/svg10.dtd">
<svg version="1.0" xmlns="http://www.w3.org/2000/svg"
 width="750.000000pt" height="750.000000pt" viewBox="0 0 750.000000 750.000000"
 preserveAspectRatio="xMidYMid meet">
<metadata>
Created by potrace 1.14, written by Peter Selinger 2001-2017
</metadata>
<g transform="translate(0.000000,750.000000) scale(0.100000,-0.100000)"
fill="#000000" stroke="none">
<path d="M241 4759 c-89 -18 -173 -88 -215 -178 -30 -67 -29 -189 2 -252 30
-62 82 -113 145 -146 48 -25 64 -27 222 -33 94 -4 179 -12 190 -17 54 -29 74
-93 46 -145 -26 -50 -39 -53 -311 -58 -140 -3 -263 -9 -273 -14 -21 -10 -47
-57 -47 -86 0 -41 29 -79 68 -90 24 -8 126 -10 297 -8 253 3 261 4 310 28 63
31 121 89 148 149 30 65 31 197 1 262 -31 66 -78 114 -142 146 -54 27 -65 28
-217 31 -88 2 -173 8 -188 14 -89 34 -89 155 0 189 13 5 126 9 251 10 148 0
239 4 262 12 65 22 81 104 31 159 l-29 33 -254 2 c-139 1 -273 -3 -297 -8z"/>
<path d="M1243 4755 c-160 -36 -280 -146 -320 -295 -24 -90 -24 -329 0 -419
23 -86 75 -180 112 -203 58 -37 145 -5 145 53 0 15 -17 69 -37 120 -36 91 -37
98 -38 224 0 149 10 188 64 248 85 94 205 102 302 18 72 -61 79 -86 79 -323 0
-122 -4 -208 -9 -208 -5 0 -25 15 -44 33 -34 33 -61 91 -72 161 -14 84 -99
115 -165 59 -32 -26 -32 -27 -28 -107 2 -64 9 -93 31 -138 44 -89 116 -161
205 -205 68 -34 84 -38 155 -38 71 0 81 2 98 24 11 13 22 35 26 49 3 14 2 168
-3 341 l-9 316 -28 57 c-89 181 -277 276 -464 233z"/>
<path d="M6883 4760 c-92 -19 -164 -75 -211 -164 -23 -44 -26 -63 -26 -141 0
-74 4 -98 22 -132 34 -66 78 -110 139 -140 53 -25 69 -28 228 -34 95 -4 181
-12 193 -18 70 -37 69 -143 -1 -183 -15 -9 -99 -14 -280 -18 l-259 -5 -25 -29
c-21 -25 -24 -37 -20 -74 3 -27 13 -53 26 -66 21 -20 29 -21 304 -21 267 0
284 1 328 21 64 30 125 88 157 148 35 67 37 186 5 257 -28 64 -87 125 -147
157 -48 24 -63 26 -226 31 -189 7 -214 14 -238 67 -16 33 -15 49 3 84 29 56
51 60 305 60 248 0 282 6 314 51 20 29 20 61 0 100 -27 54 -58 59 -316 58
-128 -1 -252 -5 -275 -9z"/>
<path d="M1849 4727 c-9 -7 -21 -22 -27 -33 -17 -31 -25 -345 -14 -521 8 -134
12 -158 36 -208 85 -173 277 -278 453 -248 123 21 238 97 302 198 l27 42 52
-58 c76 -84 156 -122 272 -127 103 -5 172 12 243 59 68 45 76 64 40 101 -15
16 -41 39 -56 50 l-28 20 -60 -27 c-108 -48 -218 -29 -286 49 -60 67 -65 66
240 66 314 0 286 9 347 -108 41 -78 102 -134 188 -175 63 -30 74 -32 177 -32
93 0 118 4 158 22 53 25 127 79 127 94 0 16 -80 98 -102 105 -13 4 -40 -4 -75
-21 -67 -34 -139 -37 -203 -8 -46 21 -92 64 -103 96 -6 16 23 17 519 17 l526
0 -38 -52 c-21 -29 -137 -181 -257 -336 -121 -156 -224 -299 -230 -317 -12
-41 -3 -78 25 -105 21 -19 34 -20 391 -20 l369 0 29 29 c40 40 40 89 0 133
l-29 33 -236 3 c-130 2 -236 5 -236 8 0 4 427 561 450 587 4 4 24 -22 46 -59
118 -203 362 -272 575 -163 47 23 69 46 69 68 0 26 -78 111 -102 111 -10 0
-40 -12 -66 -27 -92 -54 -231 -25 -293 60 -16 22 -29 44 -29 49 0 4 134 8 298
8 163 0 303 4 311 9 18 12 17 153 -3 207 -42 119 -111 198 -214 247 -120 56
-283 48 -399 -20 -60 -35 -137 -123 -164 -188 l-23 -55 -345 1 -346 0 -33 70
c-141 295 -539 316 -726 37 l-33 -48 -36 54 c-144 218 -454 254 -636 74 l-41
-41 0 117 c0 156 -16 185 -101 186 -36 0 -50 -5 -70 -26 l-24 -26 -5 -301 c-5
-285 -6 -304 -27 -342 -11 -22 -34 -49 -50 -61 -124 -89 -274 -55 -346 80 -20
39 -22 59 -27 334 l-5 294 -28 24 c-31 26 -90 32 -118 11z m1204 -323 c44 -15
127 -89 127 -114 0 -6 -72 -10 -205 -10 -113 0 -205 2 -205 5 0 19 34 67 61
86 69 49 143 60 222 33z m780 0 c32 -11 61 -32 93 -67 l47 -52 -213 -3 c-117
-1 -215 0 -218 2 -7 8 37 64 70 87 68 49 142 60 221 33z m1525 -13 c41 -21
102 -86 102 -108 0 -10 -46 -13 -205 -13 -136 0 -205 4 -205 10 0 23 31 70 61
91 75 53 167 61 247 20z"/>
<path d="M5794 4700 c-54 -22 -54 -18 -54 -503 0 -503 -1 -497 68 -517 49 -15
86 -1 112 42 19 31 20 51 20 393 0 200 4 366 9 374 13 20 109 25 257 16 107
-7 118 -9 144 -34 67 -61 31 -145 -76 -176 -69 -20 -94 -46 -94 -101 0 -56 22
-80 99 -107 97 -33 105 -50 109 -205 2 -70 8 -140 14 -155 23 -60 116 -73 156
-22 42 53 36 317 -8 421 -26 61 -25 85 7 147 22 43 27 66 27 127 1 96 -32 168
-105 234 -79 71 -108 76 -408 75 -141 0 -266 -4 -277 -9z"/>
<path d="M933 3527 c-4 -8 -46 -59 -93 -112 -163 -185 -193 -264 -126 -331 82
-82 171 -18 206 150 11 52 30 296 24 304 -1 2 -6 -3 -11 -11z"/>
<path d="M1475 3325 c-17 -264 7 -365 91 -394 48 -17 87 -9 120 24 32 32 32
101 0 170 -17 36 -174 280 -201 313 -2 2 -6 -49 -10 -113z"/>
</g>
</svg>
