<svg xmlns="http://www.w3.org/2000/svg" width="2100" height="2640.705" viewBox="0 0 2100 2640.705">
  <g id="Group_279" data-name="Group 279" transform="translate(90 -18)">
    <path id="Union_1" data-name="Union 1" d="M911.923,2622.777c-130.168-10.6-246.03-24.3-358.078-37.552l-.036,0c-81.623-9.653-158.72-18.772-235.211-25.925-85.866-8.031-158.5-12.413-228.6-13.788V2068.754H78a78,78,0,0,1-78-78V78A78,78,0,0,1,78,0H2022a78,78,0,0,1,78,78V1990.753a78,78,0,0,1-78,78h-13v534.974c-121.454,12.852-240.7,22.458-354.43,28.554-104.244,5.589-207.589,8.423-307.16,8.423C1202.541,2640.705,1060.092,2634.841,911.923,2622.777Z" transform="translate(-90 18)" fill="#fff"/>
  </g>
</svg>
