<svg id="Layer_1" data-name="Layer 1" xmlns="http://www.w3.org/2000/svg" viewBox="0 0 249.68 67.76"><defs><style>.cls-1{fill:#fff;}.cls-2{fill:#e91c26;}.cls-3{fill:#30b04b;}.cls-4{fill:#f68e3e;}.cls-5{fill:#ece524;}</style></defs><g id="Squeezers_Logo" data-name="Squeezers Logo"><path id="Path_26" data-name="Path 26" class="cls-1" d="M153.44,22.93H118.31c.84,3.69,6.22,5.74,10.09,3.86.89-.44,2.07-1.49,2.58-1.23a13.47,13.47,0,0,1,3.26,3c.95,1,.18,1.3-.74,2.06-4.63,3.92-11.65,3.83-16.74.16a15,15,0,0,1-4.88-6.55c-.28-.65-1.11-1.5-1.7-1.51-5.86-.09-11.71,0-17.57,0-.11,0-.22.13-.33.2.7,3.21,4.94,5.34,8.72,4.39,1.16-.15,3.57-1.84,4.12-1.65a44,44,0,0,1,3.6,3.24.29.29,0,0,1,0,.38c-4.89,6.23-16.59,5.77-21.21-2.37a14.49,14.49,0,0,1-13.08,8.47c-7.89,0-14.33-7-14.31-14,0-5.45,0-10.91,0-16.36-.23-5.41,6.86-5.45,6.69,0,0,5.19-.06,10.37,0,15.55a7.4,7.4,0,0,0,7.39,7.42,7.31,7.31,0,0,0,2.65-.48c2.78-1,4.72-3,4.72-7.1,0-5.58.09-10.92.1-16.36,0-4.21,6.61-4.1,6.63,0,0,2.26,0,7.23,0,7.23,6.65-8.38,19-6.55,23.77,3,5.42-11,20.94-11.55,25.9.55a11.5,11.5,0,0,1,.4,1.3s14.68.14,19.64,0h3.53s.44-1.27.71-1.88c2.46-5.65,7.93-8.74,14.4-8.2,7.6.65,13,7.7,12.11,15.33,0,1.41-1.1,1.31-2,1.31-6.45,0-12.51,0-19,0a7.68,7.68,0,0,0,5.5,4.68,7,7,0,0,0,6.16-1.1c1.14-.89,1.86-.79,2.87.27,3,3.1,2.9,3.74-1.13,5.61-7.94,3.75-16.32-.24-19.55-8.17C156.43,30.61,151.4,37.11,146.1,44c5.39.06,10-.12,14.94.07,4,.72,4.15,6.47-.2,6.7-7.4.06-14.81.1-22.21,0-2.76,0-3.87-3.12-2.09-5.63C142.08,37.55,148,30.64,153.44,22.93Zm28.77-6.32c-2.47-6.52-12.08-6.51-14.15,0Zm-90.06-.27h13.93c-2.28-6.14-11.61-6.24-13.93,0Zm25.67,0h14.42c-3.07-6.24-11.23-6.08-14.42,0Z" transform="translate(0 0)"/><path id="Path_27" data-name="Path 27" class="cls-1" d="M51.63,26.84c0-4.71.16-9.08-.05-13.44C51.41,9.82,47.5,6.79,43.78,7s-6.32,3.3-6.88,6.91A23.17,23.17,0,0,0,37,21.78c.75,4.1,3.66,7.33,1.86,8.94a3.68,3.68,0,0,1-5.19-.26l-.12-.14a18.75,18.75,0,0,1-3.08-7.42,32.22,32.22,0,0,1,.21-12.3C31.81,4.49,38.31.06,44.72.05,52.15.05,58,6.87,58.16,13.16c.05,6.85.05,11.12.17,17.76,0,2.51-1.18,3.71-3.64,3.8-7.18.27-14.27-7-13.86-14.16,0-4.1,6.31-4.67,6.73-.36C47.89,22.91,48.6,25.33,51.63,26.84Z" transform="translate(0 0)"/><path id="Path_28" data-name="Path 28" class="cls-1" d="M11.06,34.72c-2.36,0-4.71,0-7.06,0-2.55,0-4-1.32-4-3.51,0-2,1.48-3.24,4-3.27,4.5-.05,9,0,13.52-.05,2.2,0,3.55-1.09,3.88-2.81a3.31,3.31,0,0,0-2.38-4,3.1,3.1,0,0,0-.67-.1c-2.67-.25-5.37-.21-8.06-.23A10.3,10.3,0,0,1,9.69.12C14.79-.08,19.92,0,25,.08a3.29,3.29,0,0,1,3.34,3.23,2.81,2.81,0,0,1,0,.29,3.11,3.11,0,0,1-2.92,3.3h-.38c-2.95.11-5.92,0-8.87,0-1.89,0-3.77,0-5.65,0a3.55,3.55,0,0,0-3.63,3.47v.08a3.64,3.64,0,0,0,3.63,3.38c2.49.1,5,0,7.47.05a10.13,10.13,0,0,1,10.39,9.86c0,.21,0,.43,0,.64A10.26,10.26,0,0,1,18.12,34.73h-.19C15.63,34.74,13.35,34.72,11.06,34.72Z" transform="translate(0 0)"/><path id="Path_29" data-name="Path 29" class="cls-1" d="M232.22,34.73c-2.36,0-4.71,0-7.07,0s-3.8-1.23-3.84-3.42S222.45,28,225,28c4-.1,8,0,11.92-.06a23,23,0,0,0,2.62-.1,3.51,3.51,0,0,0,3.27-3.48A3.38,3.38,0,0,0,239.66,21c-2.54-.23-5.1-.23-7.66-.21-5.93,0-10.53-4.13-10.68-9.77-.17-6.18,4-10.74,10.18-10.89,4.78-.12,9.56,0,14.35,0a3.46,3.46,0,0,1,3.76,3.13,3.1,3.1,0,0,1,0,.43c0,2-1.39,3.27-3.78,3.31-4.1.05-8.21,0-12.32,0a19.29,19.29,0,0,0-2,.07,3.46,3.46,0,0,0-.05,6.91h.26c2.55.1,5.11,0,7.67.06a10.41,10.41,0,0,1,10.28,10.54c0,.06,0,.12,0,.18,0,5.31-4.78,9.94-10.38,10C236.93,34.75,234.58,34.73,232.22,34.73Z" transform="translate(0 0)"/><path id="Path_30" data-name="Path 30" class="cls-1" d="M191.27,19.12c0-4.44,0-8.88,0-13.32,0-2.65,1.16-3.83,3.81-3.85,4.91,0,9.83-.1,14.74,0,7.47.16,12.31,9,8.44,15.35a3.28,3.28,0,0,0-.1,3.78,14,14,0,0,1,1.3,5.17,64.31,64.31,0,0,1,0,6.66c0,2.15-1.26,3.6-3.13,3.7s-3.34-1.2-3.48-3.4c-.12-1.95,0-3.9,0-5.86,0-3-.8-4-3.64-4.65-2.35-.56-3.41-1.71-3.33-3.63s1.29-3,3.57-3.38a3.72,3.72,0,0,0,3.38-3.4A3.34,3.34,0,0,0,209.48,9h0c-3.36-.17-6.73-.08-10.09-.1-1.48,0-1.29,1.06-1.29,2q0,10.41,0,20.8a9,9,0,0,1-.13,2,3.34,3.34,0,0,1-3.7,2.93h0a3.3,3.3,0,0,1-2.93-3.52C191.23,28.41,191.27,23.77,191.27,19.12Z" transform="translate(0 0)"/><path id="Path_31" data-name="Path 31" class="cls-2" d="M49.46,43.84c1.67,4.8,12.52,14.25,5.26,17.74C46.25,62.88,49.36,48.62,49.46,43.84Z" transform="translate(0 0)"/><path id="Path_32" data-name="Path 32" class="cls-3" d="M31.72,40.18c-.36,4.3.22,19.37-6.78,17.21C17.43,53,29.31,44.89,31.72,40.18Z" transform="translate(0 0)"/><path id="Path_33" data-name="Path 33" class="cls-4" d="M41.62,33.5c.21,4.84,7.93,16.58.8,18C34.2,51.19,40,37.21,41.62,33.5Z" transform="translate(0 0)"/><path id="Path_34" data-name="Path 34" class="cls-5" d="M36,50.38c-.81,4.83,4.56,16.7-2.39,17.38C26.47,65.84,33.53,53.68,36,50.38Z" transform="translate(0 0)"/></g></svg>