<svg xmlns="http://www.w3.org/2000/svg" width="249.674" height="67.76" viewBox="0 0 249.674 67.76">
  <g id="Squeezers_Logo" data-name="Squeezers Logo" transform="translate(-68.237 -81)">
    <path id="Path_26" data-name="Path 26" d="M222.6,103.942H187.47c.846,3.687,6.22,5.741,10.092,3.858.888-.433,2.075-1.491,2.584-1.225a13.321,13.321,0,0,1,3.255,2.944c.955,1.033.18,1.3-.734,2.066-4.633,3.913-11.649,3.824-16.745.154a14.871,14.871,0,0,1-4.874-6.542c-.28-.651-1.115-1.5-1.707-1.513-5.855-.093-11.711-.03-17.567,0-.111,0-.223.128-.332.2.706,3.206,4.938,5.34,8.726,4.391,1.154-.148,3.567-1.84,4.111-1.653a43.982,43.982,0,0,1,3.6,3.24.284.284,0,0,1,.027.377c-4.89,6.234-16.59,5.779-21.21-2.361a14.477,14.477,0,0,1-13.086,8.461c-7.889.042-14.325-7.024-14.305-14.045-.054-5.452-.021-10.907,0-16.36-.227-5.413,6.86-5.446,6.688-.008.047,5.183-.061,10.369.039,15.551a7.407,7.407,0,0,0,10.037,6.938c2.781-1,4.721-2.991,4.72-7.106,0-5.576.095-10.913.1-16.356,0-4.206,6.616-4.1,6.633-.046.01,2.257-.009,7.229-.009,7.229,6.649-8.379,19.038-6.553,23.766,3.018,5.425-11,20.945-11.552,25.9.546a10.555,10.555,0,0,1,.407,1.3s14.675.139,19.636.033h3.533s.439-1.265.706-1.877c2.458-5.65,7.936-8.745,14.4-8.2,7.6.645,12.979,7.7,12.109,15.329.014,1.405-1.1,1.307-2.034,1.31-6.454.016-12.509.018-19.017.019a7.694,7.694,0,0,0,5.506,4.68,7.04,7.04,0,0,0,6.163-1.1c1.135-.894,1.858-.786,2.868.264,2.987,3.108,2.9,3.744-1.13,5.614-7.943,3.748-16.323-.237-19.55-8.164-5.184,6.711-10.208,13.218-15.517,20.091,5.394.06,9.965-.12,14.946.071,4.017.724,4.152,6.472-.2,6.7-7.4.065-14.812.106-22.215-.022-2.754-.047-3.87-3.12-2.089-5.636C211.242,118.567,217.207,111.649,222.6,103.942Zm28.769-6.318c-2.468-6.524-12.076-6.512-14.144,0Zm-90.059-.273h13.938C172.966,91.211,163.632,91.108,161.315,97.352Zm25.67-.032H201.4C198.332,91.083,190.175,91.245,186.985,97.32Z" transform="translate(-0.927 -0.013)" fill="#1c2450"/>
    <path id="Path_27" data-name="Path 27" d="M120.331,107.838c0-4.711.156-9.081-.049-13.434-.168-3.581-4.078-6.609-7.806-6.416-3.685.191-6.319,3.3-6.874,6.916a23.041,23.041,0,0,0,.083,7.873c.751,4.1,3.662,7.331,1.862,8.943a3.675,3.675,0,0,1-5.308-.4A18.628,18.628,0,0,1,99.16,103.9a32.248,32.248,0,0,1,.213-12.3c1.132-6.11,7.64-10.543,14.049-10.547,7.43,0,13.284,6.817,13.434,13.11.055,6.853.051,11.115.171,17.761-.006,2.508-1.173,3.709-3.635,3.8-7.182.269-14.27-6.971-13.867-14.166.043-4.1,6.319-4.665,6.732-.353C116.592,103.915,117.3,106.327,120.331,107.838Z" transform="translate(-0.462 -0.001)" fill="#1c2450"/>
    <path id="Path_28" data-name="Path 28" d="M79.294,115.721c-2.354,0-4.708.019-7.062,0-2.545-.026-4-1.32-3.987-3.507.008-2,1.477-3.249,4.019-3.274,4.506-.046,9.014.008,13.519-.052,2.2-.03,3.559-1.086,3.888-2.807a3.317,3.317,0,0,0-3.059-4.143c-2.669-.251-5.368-.208-8.055-.226a10.306,10.306,0,0,1-.627-20.594c5.1-.2,10.222-.086,15.333-.035A3.288,3.288,0,0,1,96.6,84.6a3.119,3.119,0,0,1-3.3,3.3c-2.955.113-5.918.042-8.876.053-1.884.007-3.77-.054-5.648.044a3.555,3.555,0,0,0-3.634,3.55,3.643,3.643,0,0,0,3.628,3.383c2.485.1,4.976.013,7.465.047a10.131,10.131,0,0,1,10.385,10.5,10.258,10.258,0,0,1-10.456,10.248C83.869,115.738,81.582,115.72,79.294,115.721Z" transform="translate(0 0)" fill="#1c2450"/>
    <path id="Path_29" data-name="Path 29" d="M303.872,115.727c-2.357,0-4.713.013-7.07,0-2.45-.018-3.8-1.228-3.843-3.413-.044-2.083,1.141-3.272,3.673-3.335,3.971-.1,7.945-.04,11.916-.06a22.134,22.134,0,0,0,2.622-.1,3.518,3.518,0,0,0,3.273-3.48,3.391,3.391,0,0,0-3.129-3.392c-2.541-.223-5.106-.23-7.66-.211-5.931.043-10.533-4.127-10.685-9.766-.166-6.18,4.019-10.737,10.187-10.888,4.779-.118,9.56-.054,14.342-.022a3.463,3.463,0,0,1,3.779,3.558c-.007,2-1.388,3.277-3.773,3.308-4.1.051-8.212.017-12.318.026a16.593,16.593,0,0,0-2.018.073,3.454,3.454,0,1,0,.21,6.9c2.556.094,5.118,0,7.675.055a10.407,10.407,0,0,1,10.272,10.725c0,5.308-4.782,9.94-10.385,10.017C308.585,115.755,306.228,115.727,303.872,115.727Z" transform="translate(-3.415 0)" fill="#1c2450"/>
    <path id="Path_30" data-name="Path 30" d="M262.453,100.151c0-4.442-.022-8.885.007-13.326.016-2.646,1.16-3.821,3.808-3.844,4.913-.041,9.83-.1,14.741.006,7.466.158,12.313,8.966,8.441,15.351a3.256,3.256,0,0,0-.1,3.78,14,14,0,0,1,1.3,5.168,64.177,64.177,0,0,1,.041,6.66c-.017,2.151-1.258,3.6-3.131,3.706-1.9.107-3.338-1.207-3.477-3.407-.122-1.944-.045-3.9-.057-5.854-.017-2.974-.8-3.977-3.64-4.652-2.349-.558-3.406-1.713-3.326-3.629.079-1.9,1.284-3.037,3.564-3.377a3.729,3.729,0,0,0,3.388-3.4,3.345,3.345,0,0,0-3.365-3.344c-3.355-.174-6.726-.075-10.089-.1-1.476-.011-1.291,1.06-1.293,1.985q-.009,10.4-.009,20.8a9.521,9.521,0,0,1-.124,2.006,3.338,3.338,0,0,1-3.73,2.925,3.29,3.29,0,0,1-2.935-3.516C262.414,109.442,262.454,104.8,262.453,100.151Z" transform="translate(-2.951 -0.029)" fill="#1c2450"/>
    <path id="Path_31" data-name="Path 31" d="M118.445,125.521c1.675,4.8,12.527,14.249,5.268,17.738C115.235,144.552,118.353,130.3,118.445,125.521Z" transform="translate(-0.753 -0.677)" fill="#e91c26"/>
    <path id="Path_32" data-name="Path 32" d="M100.306,121.8c-.365,4.295.214,19.372-6.786,17.208C86.012,134.642,97.89,126.514,100.306,121.8Z" transform="translate(-0.347 -0.62)" fill="#30b04b"/>
    <path id="Path_33" data-name="Path 33" d="M110.444,115.014c.214,4.843,7.931,16.586.8,18.023C103.027,132.711,108.819,118.73,110.444,115.014Z" transform="translate(-0.588 -0.517)" fill="#f68e3e"/>
    <path id="Path_34" data-name="Path 34" d="M104.694,132.153c-.81,4.837,4.56,16.7-2.383,17.384C95.175,147.618,102.241,135.459,104.694,132.153Z" transform="translate(-0.471 -0.777)" fill="#ece524"/>
  </g>
</svg>
